<svg version="1.2" xmlns="http://www.w3.org/2000/svg" viewBox="0 0 300 236" width="300" height="236"><style>.a{fill:#ffee58}.b{fill:#fdd835}</style><path class="a" d="m289.3 75.1h-278.6c-5.9 0-10.7 4.9-10.7 10.8v117.8c0 17.6 14.5 32.1 32.1 32.2h235.8c17.6-0.1 32.1-14.6 32.1-32.2v-117.8c0-5.9-4.8-10.8-10.7-10.8z"/><path class="b" d="m267.9 32.3h-114.3l-34.3-25.8c-5.6-4.1-12.3-6.4-19.3-6.4h-67.9c-17.6 0-32.1 14.6-32.1 32.2v53.6c0 5.8 4.8 10.7 10.7 10.7h289.3v-32.2c0-17.6-14.5-32.1-32.1-32.1z"/></svg>