<?xml version="1.0" encoding="UTF-8" standalone="no"?>
<!DOCTYPE svg PUBLIC "-//W3C//DTD SVG 1.1//EN" "http://www.w3.org/Graphics/SVG/1.1/DTD/svg11.dtd">
<svg xmlns="http://www.w3.org/2000/svg" version="1.1" viewBox="0.00 0.00 512.00 512.00">
<g stroke-width="2.00" fill="none" stroke-linecap="butt">
<path stroke="#92dddb" vector-effect="non-scaling-stroke" d="
  M 206.47 0.00
  C 197.30 5.55 190.58 10.15 186.29 13.81
  C 172.74 25.36 159.14 36.16 145.50 46.23
  C 125.08 61.31 109.47 77.78 90.92 94.06
  C 75.29 107.77 58.18 121.29 39.61 134.62
  C 31.02 140.78 22.40 146.94 13.73 153.11
  C 11.54 154.66 6.97 158.31 0.00 164.05"
/>
<path stroke="#86d0e2" vector-effect="non-scaling-stroke" d="
  M 330.30 0.00
  C 327.51 3.45 324.56 6.72 321.44 9.81
  C 314.07 17.14 306.31 24.35 298.16 31.44
  C 289.38 39.07 278.70 46.54 270.46 53.10
  C 264.48 57.87 258.79 62.72 253.38 67.65
  C 248.93 71.70 245.13 75.64 242.66 80.85
  C 242.52 81.14 242.25 81.33 241.94 81.37
  L 239.54 81.67"
/>
<path stroke="#5ba2b6" vector-effect="non-scaling-stroke" d="
  M 239.54 81.67
  C 223.87 81.67 208.18 81.67 192.49 81.66
  C 181.33 81.66 174.04 82.13 170.62 83.06
  C 154.39 87.48 140.80 102.88 139.89 120.01
  C 139.67 124.04 139.62 134.00 139.74 149.89"
/>
<path stroke="#86d0e2" vector-effect="non-scaling-stroke" d="
  M 139.74 149.89
  C 133.42 159.41 125.50 168.34 115.97 176.67
  C 114.04 178.36 105.83 185.89 91.36 199.25
  C 87.66 202.66 77.29 211.79 60.26 226.62
  C 56.96 229.49 53.79 232.07 50.74 234.37
  C 40.90 241.80 29.46 248.31 20.21 254.94
  C 14.09 259.33 6.77 265.94 0.00 271.35"
/>
<path stroke="#7ac2ea" vector-effect="non-scaling-stroke" d="
  M 479.02 31.82
  C 467.19 39.92 455.39 48.03 443.63 56.14
  C 440.54 58.27 438.73 59.55 438.22 59.97
  C 428.76 67.66 419.01 75.38 408.98 83.14
  C 405.54 85.79 402.12 89.21 399.20 92.37
  C 391.06 101.18 382.70 109.82 374.13 118.31"
/>
<path stroke="#559bba" vector-effect="non-scaling-stroke" d="
  M 374.13 118.31
  C 363.34 107.29 352.58 96.24 341.85 85.15
  C 339.58 82.81 337.05 81.64 334.25 81.64
  C 302.68 81.69 271.11 81.70 239.54 81.67"
/>
<path stroke="#7ab8e5" vector-effect="non-scaling-stroke" d="
  M 511.82 106.80
  C 502.61 111.96 494.20 117.55 486.59 123.57
  C 467.28 138.83 444.88 157.63 420.53 175.56"
/>
<path stroke="#4e94be" vector-effect="non-scaling-stroke" d="
  M 420.53 175.56
  C 420.39 173.17 420.22 170.80 420.03 168.44
  C 419.73 164.82 417.21 162.36 414.82 159.92
  C 401.26 146.05 387.70 132.18 374.13 118.31"
/>
<path stroke="#5591b5" vector-effect="non-scaling-stroke" d="
  M 420.53 175.56
  C 420.36 177.14 420.42 178.60 420.71 179.93
  C 420.86 180.60 421.45 181.08 422.14 181.08
  L 424.78 181.08
  C 425.38 181.08 425.87 181.56 425.87 182.16
  L 425.87 196.54
  C 425.87 197.14 425.47 197.66 424.90 197.83
  L 422.54 198.49
  C 421.81 198.70 421.28 199.32 421.19 200.07
  C 420.55 205.60 420.23 210.82 420.23 215.75
  C 420.23 224.00 420.26 232.27 420.32 240.57"
/>
<path stroke="#6290a8" vector-effect="non-scaling-stroke" d="
  M 420.32 240.57
  L 420.30 297.86"
/>
<path stroke="#719098" vector-effect="non-scaling-stroke" d="
  M 420.30 297.86
  L 420.29 361.51"
/>
<path stroke="#808f89" vector-effect="non-scaling-stroke" d="
  M 420.29 361.51
  C 420.33 367.85 420.34 374.18 420.33 380.50
  C 420.32 389.48 419.83 395.75 418.88 399.32
  C 414.09 417.28 398.17 429.87 379.50 430.30
  C 373.75 430.43 365.34 430.45 354.27 430.36"
/>
<path stroke="#719098" vector-effect="non-scaling-stroke" d="
  M 354.27 430.36
  L 251.16 430.38"
/>
<path stroke="#6290a8" vector-effect="non-scaling-stroke" d="
  M 251.16 430.38
  L 180.39 430.39"
/>
<path stroke="#5591b5" vector-effect="non-scaling-stroke" d="
  M 180.39 430.39
  C 162.40 429.10 149.77 420.21 142.52 403.73"
/>
<path stroke="#4e94be" vector-effect="non-scaling-stroke" d="
  M 142.52 403.73
  C 140.69 398.32 139.78 392.08 139.79 385.00
  C 139.82 348.77 139.81 312.48 139.76 276.15"
/>
<path stroke="#559bba" vector-effect="non-scaling-stroke" d="
  M 139.76 276.15
  L 139.74 149.89"
/>
<path stroke="#8db2c5" vector-effect="non-scaling-stroke" d="
  M 323.15 102.36
  C 323.15 101.98 322.84 101.67 322.46 101.67
  C 246.67 101.66 202.95 101.65 191.31 101.63
  C 178.80 101.60 171.07 101.33 163.97 110.70
  C 159.90 116.06 159.78 121.71 159.78 128.25
  C 159.79 296.46 159.79 381.57 159.78 383.58
  C 159.72 392.20 160.49 398.36 166.28 403.97
  C 170.66 408.21 176.15 410.33 182.76 410.32
  C 277.45 410.27 341.61 410.28 375.25 410.33
  C 379.85 410.34 382.86 410.09 384.28 409.58
  C 394.92 405.83 400.25 398.55 400.26 387.72
  C 400.30 361.87 400.33 300.64 400.35 204.01
  C 400.35 202.12 400.27 200.66 400.10 199.61
  C 400.05 199.31 399.80 199.09 399.50 199.08
  C 393.87 198.93 379.79 198.90 357.26 198.98
  C 346.77 199.02 338.45 195.90 332.32 189.61
  C 325.42 182.55 323.09 174.73 323.12 164.50
  C 323.13 161.05 323.14 140.34 323.15 102.36"
/>
<path stroke="#80adc5" vector-effect="non-scaling-stroke" d="
  M 340.85 113.54
  C 340.78 115.05 341.24 116.39 341.23 118.17
  C 341.16 130.67 341.14 145.59 341.18 162.94
  C 341.18 165.97 340.98 170.10 342.12 172.46
  C 344.81 178.06 349.12 180.86 355.04 180.87
  C 384.47 180.90 399.26 180.91 399.41 180.92
  C 399.78 180.94 400.11 180.67 400.15 180.30
  C 400.38 178.12 400.45 176.49 400.37 175.42
  C 400.30 174.35 399.33 172.86 397.46 170.95
  C 375.51 148.41 356.77 129.23 341.24 113.40
  C 341.10 113.26 340.86 113.34 340.85 113.54"
/>
<path stroke="#8db2c5" vector-effect="non-scaling-stroke" d="
  M 237.91 217.91
  C 237.91 207.98 229.86 199.93 219.93 199.93
  C 210.00 199.93 201.95 207.98 201.95 217.91
  C 201.95 227.84 210.00 235.89 219.93 235.89
  C 229.86 235.89 237.91 227.84 237.91 217.91"
/>
<path stroke="#f1c19a" vector-effect="non-scaling-stroke" d="
  M 294.35 357.68
  C 276.46 363.39 259.32 362.12 242.94 353.87
  C 236.75 350.75 229.95 342.81 222.55 347.80
  C 218.21 350.72 216.76 356.09 219.07 360.72
  C 219.85 362.29 221.61 364.02 224.34 365.93
  C 253.40 386.21 291.59 386.13 320.83 366.61
  C 324.14 364.40 326.07 362.72 326.62 361.57
  C 329.59 355.29 328.08 350.41 322.08 346.92"
/>
<path stroke="#8db2c5" vector-effect="non-scaling-stroke" d="
  M 322.08 346.92
  C 339.43 331.25 356.73 315.54 373.99 299.79
  C 378.12 296.03 380.50 293.29 381.15 291.57
  C 382.52 287.94 382.54 284.30 381.21 280.65
  C 380.54 278.81 378.16 276.04 374.08 272.33
  C 357.43 257.20 336.53 238.24 311.39 215.43
  C 310.67 214.78 310.08 213.99 309.65 213.11
  L 306.98 207.71
  C 306.95 207.66 306.93 207.62 306.90 207.58
  C 302.20 201.75 296.53 199.26 289.88 200.11
  C 279.32 201.47 272.53 210.97 274.47 221.49
  C 275.60 227.65 280.63 233.39 286.70 235.00
  C 287.54 235.23 289.03 235.56 291.18 236.01
  C 292.14 236.21 293.02 236.67 293.74 237.32
  L 330.93 271.02
  C 331.31 271.37 331.07 272.00 330.56 272.00
  C 302.13 272.01 258.55 272.01 199.83 272.00
  C 191.27 272.00 184.15 271.24 179.44 279.66
  C 176.71 284.53 177.70 291.02 181.30 295.25
  C 184.07 298.51 188.15 300.14 193.52 300.14
  C 264.55 300.13 310.34 300.12 330.90 300.13
  C 331.42 300.13 331.64 300.79 331.23 301.11
  C 329.46 302.49 328.51 303.24 328.38 303.37
  C 310.44 319.66 298.69 330.33 293.14 335.39
  C 289.93 338.32 288.26 341.72 288.11 345.61
  C 287.92 350.70 290.00 354.72 294.35 357.68"
/>
<path stroke="#8d7c62" vector-effect="non-scaling-stroke" d="
  M 322.08 346.92
  C 318.61 345.75 315.78 345.88 313.60 347.32
  C 307.30 351.47 301.53 355.23 294.35 357.68"
/>
<path stroke="#8eb4cf" vector-effect="non-scaling-stroke" d="
  M 512.00 167.32
  C 499.93 176.67 491.17 183.65 485.73 188.24
  C 464.40 206.26 442.59 223.70 420.32 240.57"
/>
<path stroke="#7ac2ea" vector-effect="non-scaling-stroke" d="
  M 139.76 276.15
  C 136.19 283.24 132.09 288.90 127.44 293.13
  C 114.27 305.11 105.46 313.45 101.03 318.14
  C 97.75 321.61 95.20 324.14 93.39 325.75
  C 68.60 347.65 47.19 362.36 15.98 382.90
  C 11.75 385.69 5.64 389.95 0.00 387.72"
/>
<path stroke="#a9b3b3" vector-effect="non-scaling-stroke" d="
  M 512.00 223.96
  C 501.65 231.19 493.14 237.64 486.46 243.31
  C 464.71 261.76 442.65 279.94 420.30 297.86"
/>
<path stroke="#c7b294" vector-effect="non-scaling-stroke" d="
  M 512.00 287.96
  C 503.71 294.17 497.40 299.10 493.06 302.73
  C 469.14 322.72 444.88 342.32 420.29 361.51"
/>
<path stroke="#7ab8e5" vector-effect="non-scaling-stroke" d="
  M 142.52 403.73
  C 131.25 412.29 123.31 418.52 118.70 422.43
  C 104.67 434.33 90.21 446.90 75.79 457.21
  C 63.10 466.28 50.43 475.39 37.78 484.56"
/>
<path stroke="#e4b176" vector-effect="non-scaling-stroke" d="
  M 512.00 379.08
  C 496.30 388.45 486.18 396.92 469.65 410.32
  C 454.91 422.27 436.45 435.92 421.58 448.38
  C 401.62 465.10 376.70 486.31 346.82 512.00"
/>
<path stroke="#c7b294" vector-effect="non-scaling-stroke" d="
  M 258.72 512.00
  C 274.25 497.00 288.11 484.85 300.30 475.56
  C 321.16 459.66 337.16 447.45 354.27 430.36"
/>
<path stroke="#8eb4cf" vector-effect="non-scaling-stroke" d="
  M 180.39 430.39
  C 166.88 442.72 156.43 451.82 149.06 457.69
  C 128.31 474.20 114.69 485.19 108.20 490.65
  C 102.09 495.78 95.31 502.19 87.85 509.87"
/>
<path stroke="#a9b3b3" vector-effect="non-scaling-stroke" d="
  M 251.16 430.38
  C 240.25 441.67 228.64 452.08 216.31 461.59
  C 195.82 477.40 176.14 494.20 157.26 512.00"
/>
</g>
<path fill="#97e2d8" d="
  M 206.47 0.00
  C 197.30 5.55 190.58 10.15 186.29 13.81
  C 172.74 25.36 159.14 36.16 145.50 46.23
  C 125.08 61.31 109.47 77.78 90.92 94.06
  C 75.29 107.77 58.18 121.29 39.61 134.62
  C 31.02 140.78 22.40 146.94 13.73 153.11
  C 11.54 154.66 6.97 158.31 0.00 164.05
  L 0.00 106.29
  C 1.78 48.93 49.46 1.90 106.41 0.00
  L 206.47 0.00
  Z"
/>
<path fill="#8cd7de" d="
  M 330.30 0.00
  C 327.51 3.45 324.56 6.72 321.44 9.81
  C 314.07 17.14 306.31 24.35 298.16 31.44
  C 289.38 39.07 278.70 46.54 270.46 53.10
  C 264.48 57.87 258.79 62.72 253.38 67.65
  C 248.93 71.70 245.13 75.64 242.66 80.85
  C 242.52 81.14 242.25 81.33 241.94 81.37
  L 239.54 81.67
  C 223.87 81.67 208.18 81.67 192.49 81.66
  C 181.33 81.66 174.04 82.13 170.62 83.06
  C 154.39 87.48 140.80 102.88 139.89 120.01
  C 139.67 124.04 139.62 134.00 139.74 149.89
  C 133.42 159.41 125.50 168.34 115.97 176.67
  C 114.04 178.36 105.83 185.89 91.36 199.25
  C 87.66 202.66 77.29 211.79 60.26 226.62
  C 56.96 229.49 53.79 232.07 50.74 234.37
  C 40.90 241.80 29.46 248.31 20.21 254.94
  C 14.09 259.33 6.77 265.94 0.00 271.35
  L 0.00 164.05
  C 6.97 158.31 11.54 154.66 13.73 153.11
  C 22.40 146.94 31.02 140.78 39.61 134.62
  C 58.18 121.29 75.29 107.77 90.92 94.06
  C 109.47 77.78 125.08 61.31 145.50 46.23
  C 159.14 36.16 172.74 25.36 186.29 13.81
  C 190.58 10.15 197.30 5.55 206.47 0.00
  L 330.30 0.00
  Z"
/>
<path fill="#80c9e6" d="
  M 405.09 0.00
  C 433.01 0.69 459.18 12.37 479.02 31.82
  C 467.19 39.92 455.39 48.03 443.63 56.14
  C 440.54 58.27 438.73 59.55 438.22 59.97
  C 428.76 67.66 419.01 75.38 408.98 83.14
  C 405.54 85.79 402.12 89.21 399.20 92.37
  C 391.06 101.18 382.70 109.82 374.13 118.31
  C 363.34 107.29 352.58 96.24 341.85 85.15
  C 339.58 82.81 337.05 81.64 334.25 81.64
  C 302.68 81.69 271.11 81.70 239.54 81.67
  L 241.94 81.37
  C 242.25 81.33 242.52 81.14 242.66 80.85
  C 245.13 75.64 248.93 71.70 253.38 67.65
  C 258.79 62.72 264.48 57.87 270.46 53.10
  C 278.70 46.54 289.38 39.07 298.16 31.44
  C 306.31 24.35 314.07 17.14 321.44 9.81
  C 324.56 6.72 327.51 3.45 330.30 0.00
  L 405.09 0.00
  Z"
/>
<path fill="#73bbee" d="
  M 479.02 31.82
  C 498.89 51.52 511.63 78.61 511.82 106.80
  C 502.61 111.96 494.20 117.55 486.59 123.57
  C 467.28 138.83 444.88 157.63 420.53 175.56
  C 420.39 173.17 420.22 170.80 420.03 168.44
  C 419.73 164.82 417.21 162.36 414.82 159.92
  C 401.26 146.05 387.70 132.18 374.13 118.31
  C 382.70 109.82 391.06 101.18 399.20 92.37
  C 402.12 89.21 405.54 85.79 408.98 83.14
  C 419.01 75.38 428.76 67.66 438.22 59.97
  C 438.73 59.55 440.54 58.27 443.63 56.14
  C 455.39 48.03 467.19 39.92 479.02 31.82
  Z"
/>
<path fill="#296d8d" d="
  M 239.54 81.67
  C 271.11 81.70 302.68 81.69 334.25 81.64
  C 337.05 81.64 339.58 82.81 341.85 85.15
  C 352.58 96.24 363.34 107.29 374.13 118.31
  C 387.70 132.18 401.26 146.05 414.82 159.92
  C 417.21 162.36 419.73 164.82 420.03 168.44
  C 420.22 170.80 420.39 173.17 420.53 175.56
  C 420.36 177.14 420.42 178.60 420.71 179.93
  C 420.86 180.60 421.45 181.08 422.14 181.08
  L 424.78 181.08
  C 425.38 181.08 425.87 181.56 425.87 182.16
  L 425.87 196.54
  C 425.87 197.14 425.47 197.66 424.90 197.83
  L 422.54 198.49
  C 421.81 198.70 421.28 199.32 421.19 200.07
  C 420.55 205.60 420.23 210.82 420.23 215.75
  C 420.23 224.00 420.26 232.27 420.32 240.57
  L 420.30 297.86
  L 420.29 361.51
  C 420.33 367.85 420.34 374.18 420.33 380.50
  C 420.32 389.48 419.83 395.75 418.88 399.32
  C 414.09 417.28 398.17 429.87 379.50 430.30
  C 373.75 430.43 365.34 430.45 354.27 430.36
  L 251.16 430.38
  L 180.39 430.39
  C 162.40 429.10 149.77 420.21 142.52 403.73
  C 140.69 398.32 139.78 392.08 139.79 385.00
  C 139.82 348.77 139.81 312.48 139.76 276.15
  L 139.74 149.89
  C 139.62 134.00 139.67 124.04 139.89 120.01
  C 140.80 102.88 154.39 87.48 170.62 83.06
  C 174.04 82.13 181.33 81.66 192.49 81.66
  C 208.18 81.67 223.87 81.67 239.54 81.67
  Z
  M 323.15 102.36
  C 323.15 101.98 322.84 101.67 322.46 101.67
  C 246.67 101.66 202.95 101.65 191.31 101.63
  C 178.80 101.60 171.07 101.33 163.97 110.70
  C 159.90 116.06 159.78 121.71 159.78 128.25
  C 159.79 296.46 159.79 381.57 159.78 383.58
  C 159.72 392.20 160.49 398.36 166.28 403.97
  C 170.66 408.21 176.15 410.33 182.76 410.32
  C 277.45 410.27 341.61 410.28 375.25 410.33
  C 379.85 410.34 382.86 410.09 384.28 409.58
  C 394.92 405.83 400.25 398.55 400.26 387.72
  C 400.30 361.87 400.33 300.64 400.35 204.01
  C 400.35 202.12 400.27 200.66 400.10 199.61
  C 400.05 199.31 399.80 199.09 399.50 199.08
  C 393.87 198.93 379.79 198.90 357.26 198.98
  C 346.77 199.02 338.45 195.90 332.32 189.61
  C 325.42 182.55 323.09 174.73 323.12 164.50
  C 323.13 161.05 323.14 140.34 323.15 102.36
  Z
  M 340.85 113.54
  C 340.78 115.05 341.24 116.39 341.23 118.17
  C 341.16 130.67 341.14 145.59 341.18 162.94
  C 341.18 165.97 340.98 170.10 342.12 172.46
  C 344.81 178.06 349.12 180.86 355.04 180.87
  C 384.47 180.90 399.26 180.91 399.41 180.92
  C 399.78 180.94 400.11 180.67 400.15 180.30
  C 400.38 178.12 400.45 176.49 400.37 175.42
  C 400.30 174.35 399.33 172.86 397.46 170.95
  C 375.51 148.41 356.77 129.23 341.24 113.40
  C 341.10 113.26 340.86 113.34 340.85 113.54
  Z"
/>
<path fill="#f1f7fd" d="
  M 323.15 102.36
  C 323.14 140.34 323.13 161.05 323.12 164.50
  C 323.09 174.73 325.42 182.55 332.32 189.61
  C 338.45 195.90 346.77 199.02 357.26 198.98
  C 379.79 198.90 393.87 198.93 399.50 199.08
  C 399.80 199.09 400.05 199.31 400.10 199.61
  C 400.27 200.66 400.35 202.12 400.35 204.01
  C 400.33 300.64 400.30 361.87 400.26 387.72
  C 400.25 398.55 394.92 405.83 384.28 409.58
  C 382.86 410.09 379.85 410.34 375.25 410.33
  C 341.61 410.28 277.45 410.27 182.76 410.32
  C 176.15 410.33 170.66 408.21 166.28 403.97
  C 160.49 398.36 159.72 392.20 159.78 383.58
  C 159.79 381.57 159.79 296.46 159.78 128.25
  C 159.78 121.71 159.90 116.06 163.97 110.70
  C 171.07 101.33 178.80 101.60 191.31 101.63
  C 202.95 101.65 246.67 101.66 322.46 101.67
  C 322.84 101.67 323.15 101.98 323.15 102.36
  Z
  M 237.91 217.91
  C 237.91 207.98 229.86 199.93 219.93 199.93
  C 210.00 199.93 201.95 207.98 201.95 217.91
  C 201.95 227.84 210.00 235.89 219.93 235.89
  C 229.86 235.89 237.91 227.84 237.91 217.91
  Z
  M 294.35 357.68
  C 276.46 363.39 259.32 362.12 242.94 353.87
  C 236.75 350.75 229.95 342.81 222.55 347.80
  C 218.21 350.72 216.76 356.09 219.07 360.72
  C 219.85 362.29 221.61 364.02 224.34 365.93
  C 253.40 386.21 291.59 386.13 320.83 366.61
  C 324.14 364.40 326.07 362.72 326.62 361.57
  C 329.59 355.29 328.08 350.41 322.08 346.92
  C 339.43 331.25 356.73 315.54 373.99 299.79
  C 378.12 296.03 380.50 293.29 381.15 291.57
  C 382.52 287.94 382.54 284.30 381.21 280.65
  C 380.54 278.81 378.16 276.04 374.08 272.33
  C 357.43 257.20 336.53 238.24 311.39 215.43
  C 310.67 214.78 310.08 213.99 309.65 213.11
  L 306.98 207.71
  C 306.95 207.66 306.93 207.62 306.90 207.58
  C 302.20 201.75 296.53 199.26 289.88 200.11
  C 279.32 201.47 272.53 210.97 274.47 221.49
  C 275.60 227.65 280.63 233.39 286.70 235.00
  C 287.54 235.23 289.03 235.56 291.18 236.01
  C 292.14 236.21 293.02 236.67 293.74 237.32
  L 330.93 271.02
  C 331.31 271.37 331.07 272.00 330.56 272.00
  C 302.13 272.01 258.55 272.01 199.83 272.00
  C 191.27 272.00 184.15 271.24 179.44 279.66
  C 176.71 284.53 177.70 291.02 181.30 295.25
  C 184.07 298.51 188.15 300.14 193.52 300.14
  C 264.55 300.13 310.34 300.12 330.90 300.13
  C 331.42 300.13 331.64 300.79 331.23 301.11
  C 329.46 302.49 328.51 303.24 328.38 303.37
  C 310.44 319.66 298.69 330.33 293.14 335.39
  C 289.93 338.32 288.26 341.72 288.11 345.61
  C 287.92 350.70 290.00 354.72 294.35 357.68
  Z"
/>
<path fill="#81b4dc" d="
  M 511.82 106.80
  C 511.88 106.75 511.94 106.69 512.00 106.64
  L 512.00 167.32
  C 499.93 176.67 491.17 183.65 485.73 188.24
  C 464.40 206.26 442.59 223.70 420.32 240.57
  C 420.26 232.27 420.23 224.00 420.23 215.75
  C 420.23 210.82 420.55 205.60 421.19 200.07
  C 421.28 199.32 421.81 198.70 422.54 198.49
  L 424.90 197.83
  C 425.47 197.66 425.87 197.14 425.87 196.54
  L 425.87 182.16
  C 425.87 181.56 425.38 181.08 424.78 181.08
  L 422.14 181.08
  C 421.45 181.08 420.86 180.60 420.71 179.93
  C 420.42 178.60 420.36 177.14 420.53 175.56
  C 444.88 157.63 467.28 138.83 486.59 123.57
  C 494.20 117.55 502.61 111.96 511.82 106.80
  Z"
/>
<path fill="#d7ecfd" d="
  M 340.85 113.54
  C 340.86 113.34 341.10 113.26 341.24 113.40
  C 356.77 129.23 375.51 148.41 397.46 170.95
  C 399.33 172.86 400.30 174.35 400.37 175.42
  C 400.45 176.49 400.38 178.12 400.15 180.30
  C 400.11 180.67 399.78 180.94 399.41 180.92
  C 399.26 180.91 384.47 180.90 355.04 180.87
  C 349.12 180.86 344.81 178.06 342.12 172.46
  C 340.98 170.10 341.18 165.97 341.18 162.94
  C 341.14 145.59 341.16 130.67 341.23 118.17
  C 341.24 116.39 340.78 115.05 340.85 113.54
  Z"
/>
<path fill="#80c9e6" d="
  M 139.74 149.89
  L 139.76 276.15
  C 136.19 283.24 132.09 288.90 127.44 293.13
  C 114.27 305.11 105.46 313.45 101.03 318.14
  C 97.75 321.61 95.20 324.14 93.39 325.75
  C 68.60 347.65 47.19 362.36 15.98 382.90
  C 11.75 385.69 5.64 389.95 0.00 387.72
  L 0.00 271.35
  C 6.77 265.94 14.09 259.33 20.21 254.94
  C 29.46 248.31 40.90 241.80 50.74 234.37
  C 53.79 232.07 56.96 229.49 60.26 226.62
  C 77.29 211.79 87.66 202.66 91.36 199.25
  C 105.83 185.89 114.04 178.36 115.97 176.67
  C 125.50 168.34 133.42 159.41 139.74 149.89
  Z"
/>
<path fill="#9ab3c2" d="
  M 512.00 167.32
  L 512.00 223.96
  C 501.65 231.19 493.14 237.64 486.46 243.31
  C 464.71 261.76 442.65 279.94 420.30 297.86
  L 420.32 240.57
  C 442.59 223.70 464.40 206.26 485.73 188.24
  C 491.17 183.65 499.93 176.67 512.00 167.32
  Z"
/>
<circle fill="#296d8d" cx="219.93" cy="217.91" r="17.98"/>
<path fill="#296d8d" d="
  M 322.08 346.92
  C 318.61 345.75 315.78 345.88 313.60 347.32
  C 307.30 351.47 301.53 355.23 294.35 357.68
  C 290.00 354.72 287.92 350.70 288.11 345.61
  C 288.26 341.72 289.93 338.32 293.14 335.39
  C 298.69 330.33 310.44 319.66 328.38 303.37
  C 328.51 303.24 329.46 302.49 331.23 301.11
  C 331.64 300.79 331.42 300.13 330.90 300.13
  C 310.34 300.12 264.55 300.13 193.52 300.14
  C 188.15 300.14 184.07 298.51 181.30 295.25
  C 177.70 291.02 176.71 284.53 179.44 279.66
  C 184.15 271.24 191.27 272.00 199.83 272.00
  C 258.55 272.01 302.13 272.01 330.56 272.00
  C 331.07 272.00 331.31 271.37 330.93 271.02
  L 293.74 237.32
  C 293.02 236.67 292.14 236.21 291.18 236.01
  C 289.03 235.56 287.54 235.23 286.70 235.00
  C 280.63 233.39 275.60 227.65 274.47 221.49
  C 272.53 210.97 279.32 201.47 289.88 200.11
  C 296.53 199.26 302.20 201.75 306.90 207.58
  C 306.93 207.62 306.95 207.66 306.98 207.71
  L 309.65 213.11
  C 310.08 213.99 310.67 214.78 311.39 215.43
  C 336.53 238.24 357.43 257.20 374.08 272.33
  C 378.16 276.04 380.54 278.81 381.21 280.65
  C 382.54 284.30 382.52 287.94 381.15 291.57
  C 380.50 293.29 378.12 296.03 373.99 299.79
  C 356.73 315.54 339.43 331.25 322.08 346.92
  Z"
/>
<path fill="#b8b2a3" d="
  M 512.00 223.96
  L 512.00 287.96
  C 503.71 294.17 497.40 299.10 493.06 302.73
  C 469.14 322.72 444.88 342.32 420.29 361.51
  L 420.30 297.86
  C 442.65 279.94 464.71 261.76 486.46 243.31
  C 493.14 237.64 501.65 231.19 512.00 223.96
  Z"
/>
<path fill="#73bbee" d="
  M 139.76 276.15
  C 139.81 312.48 139.82 348.77 139.79 385.00
  C 139.78 392.08 140.69 398.32 142.52 403.73
  C 131.25 412.29 123.31 418.52 118.70 422.43
  C 104.67 434.33 90.21 446.90 75.79 457.21
  C 63.10 466.28 50.43 475.39 37.78 484.56
  C 18.69 467.59 6.63 446.55 1.60 421.46
  C 0.93 418.15 0.40 412.95 0.00 405.86
  L 0.00 387.72
  C 5.64 389.95 11.75 385.69 15.98 382.90
  C 47.19 362.36 68.60 347.65 93.39 325.75
  C 95.20 324.14 97.75 321.61 101.03 318.14
  C 105.46 313.45 114.27 305.11 127.44 293.13
  C 132.09 288.90 136.19 283.24 139.76 276.15
  Z"
/>
<path fill="#d6b184" d="
  M 512.00 287.96
  L 512.00 379.08
  C 496.30 388.45 486.18 396.92 469.65 410.32
  C 454.91 422.27 436.45 435.92 421.58 448.38
  C 401.62 465.10 376.70 486.31 346.82 512.00
  L 258.72 512.00
  C 274.25 497.00 288.11 484.85 300.30 475.56
  C 321.16 459.66 337.16 447.45 354.27 430.36
  C 365.34 430.45 373.75 430.43 379.50 430.30
  C 398.17 429.87 414.09 417.28 418.88 399.32
  C 419.83 395.75 420.32 389.48 420.33 380.50
  C 420.34 374.18 420.33 367.85 420.29 361.51
  C 444.88 342.32 469.14 322.72 493.06 302.73
  C 497.40 299.10 503.71 294.17 512.00 287.96
  Z"
/>
<path fill="#f08a36" d="
  M 294.35 357.68
  C 301.53 355.23 307.30 351.47 313.60 347.32
  C 315.78 345.88 318.61 345.75 322.08 346.92
  C 328.08 350.41 329.59 355.29 326.62 361.57
  C 326.07 362.72 324.14 364.40 320.83 366.61
  C 291.59 386.13 253.40 386.21 224.34 365.93
  C 221.61 364.02 219.85 362.29 219.07 360.72
  C 216.76 356.09 218.21 350.72 222.55 347.80
  C 229.95 342.81 236.75 350.75 242.94 353.87
  C 259.32 362.12 276.46 363.39 294.35 357.68
  Z"
/>
<path fill="#f2b068" d="
  M 512.00 379.08
  L 512.00 405.36
  C 511.00 439.38 493.97 470.34 466.75 490.49
  C 448.56 503.96 428.16 511.13 405.53 512.00
  L 346.82 512.00
  C 376.70 486.31 401.62 465.10 421.58 448.38
  C 436.45 435.92 454.91 422.27 469.65 410.32
  C 486.18 396.92 496.30 388.45 512.00 379.08
  Z"
/>
<path fill="#81b4dc" d="
  M 142.52 403.73
  C 149.77 420.21 162.40 429.10 180.39 430.39
  C 166.88 442.72 156.43 451.82 149.06 457.69
  C 128.31 474.20 114.69 485.19 108.20 490.65
  C 102.09 495.78 95.31 502.19 87.85 509.87
  C 69.02 505.66 52.33 497.23 37.78 484.56
  C 50.43 475.39 63.10 466.28 75.79 457.21
  C 90.21 446.90 104.67 434.33 118.70 422.43
  C 123.31 418.52 131.25 412.29 142.52 403.73
  Z"
/>
<path fill="#9ab3c2" d="
  M 251.16 430.38
  C 240.25 441.67 228.64 452.08 216.31 461.59
  C 195.82 477.40 176.14 494.20 157.26 512.00
  L 106.47 512.00
  L 87.85 509.87
  C 95.31 502.19 102.09 495.78 108.20 490.65
  C 114.69 485.19 128.31 474.20 149.06 457.69
  C 156.43 451.82 166.88 442.72 180.39 430.39
  L 251.16 430.38
  Z"
/>
<path fill="#b8b2a3" d="
  M 354.27 430.36
  C 337.16 447.45 321.16 459.66 300.30 475.56
  C 288.11 484.85 274.25 497.00 258.72 512.00
  L 157.26 512.00
  C 176.14 494.20 195.82 477.40 216.31 461.59
  C 228.64 452.08 240.25 441.67 251.16 430.38
  L 354.27 430.36
  Z"
/>
</svg>
